<?xml version="1.0" standalone="no"?>
<!DOCTYPE svg PUBLIC "-//W3C//DTD SVG 20010904//EN"
 "http://www.w3.org/TR/2001/REC-SVG-20010904/DTD/svg10.dtd">
<svg version="1.0" xmlns="http://www.w3.org/2000/svg"
 width="1280.000000pt" height="1267.000000pt" viewBox="0 0 1280.000000 1267.000000"
 preserveAspectRatio="xMidYMid meet">
<metadata>
Created by potrace 1.16, written by Peter Selinger 2001-2019
</metadata>
<g transform="translate(0.000000,1267.000000) scale(0.100000,-0.100000)"
fill="#000000" stroke="none">
<path d="M4020 11265 c-1273 -662 -2332 -1218 -2354 -1236 -48 -40 -66 -82
-66 -154 0 -84 33 -141 105 -178 28 -15 -24 -16 -663 -17 -566 0 -699 -3 -725
-14 -39 -17 -92 -71 -106 -109 -7 -18 -11 -187 -11 -483 0 -434 1 -457 20
-494 24 -47 71 -84 125 -99 23 -6 129 -11 248 -11 l207 0 0 -1995 0 -1995 -25
0 c-59 0 -141 -61 -164 -123 -7 -18 -11 -187 -11 -483 0 -434 1 -457 20 -494
24 -47 71 -84 125 -99 57 -15 11253 -15 11310 0 54 15 101 52 125 99 19 37 20
60 20 495 0 501 1 493 -61 552 -37 35 -77 53 -115 53 l-24 0 0 1995 0 1995
208 0 c118 0 224 5 247 11 54 15 101 52 125 99 19 37 20 60 20 494 0 296 -4
465 -11 483 -14 38 -67 92 -106 109 -26 11 -159 14 -725 14 -639 1 -691 2
-663 17 78 41 109 98 103 194 -4 75 -19 103 -79 150 -19 15 -1074 567 -2345
1228 l-2311 1201 -64 0 -64 -1 -2315 -1204z m4257 -1183 c-1032 -1 -2722 -1
-3754 0 l-1877 3 1877 976 1877 977 1878 -977 1877 -976 -1878 -3z m2123 -607
l0 -195 -4000 0 -4000 0 0 195 0 195 4000 0 4000 0 0 -195z m-8400 -330 c0
-160 19 -204 105 -249 27 -15 -35 -16 -737 -16 l-768 0 0 195 0 195 700 0 700
0 0 -125z m10200 -70 l0 -195 -767 0 c-703 0 -765 1 -738 16 86 45 105 89 105
249 l0 125 700 0 700 0 0 -195z m-9200 -2400 l0 -2195 -200 0 -200 0 0 2195 0
2195 200 0 200 0 0 -2195z m1000 0 l0 -2195 -300 0 -300 0 0 2195 0 2195 300
0 300 0 0 -2195z m800 0 l0 -2195 -200 0 -200 0 0 2195 0 2195 200 0 200 0 0
-2195z m2800 0 l0 -2195 -200 0 -200 0 0 858 c0 829 -1 862 -20 938 -63 246
-244 454 -477 549 -180 73 -426 73 -606 0 -233 -95 -414 -303 -477 -549 -19
-76 -20 -109 -20 -938 l0 -858 -200 0 -200 0 0 2195 0 2195 1200 0 1200 0 0
-2195z m800 0 l0 -2195 -200 0 -200 0 0 2195 0 2195 200 0 200 0 0 -2195z
m1000 0 l0 -2195 -300 0 -300 0 0 2195 0 2195 300 0 300 0 0 -2195z m800 0 l0
-2195 -200 0 -200 0 0 2195 0 2195 200 0 200 0 0 -2195z m-8000 -200 l0 -1995
-500 0 -500 0 0 1995 0 1995 500 0 500 0 0 -1995z m9400 0 l0 -1995 -500 0
-500 0 0 1995 0 1995 500 0 500 0 0 -1995z m-5077 -24 c143 -49 250 -177 264
-315 l6 -56 -393 0 -393 0 6 54 c24 233 284 394 510 317z m277 -1376 l0 -595
-400 0 -400 0 0 595 0 595 400 0 400 0 0 -595z m5000 -1200 l0 -195 -5400 0
-5400 0 0 195 0 195 5400 0 5400 0 0 -195z"/>
<path d="M2635 3051 c-203 -58 -367 -226 -419 -428 -9 -34 -16 -102 -16 -153
0 -51 7 -119 16 -153 53 -206 225 -378 430 -431 56 -14 389 -16 3436 -16
l3373 0 515 206 c283 113 530 215 548 226 110 68 110 268 0 336 -18 11 -265
113 -548 226 l-515 206 -3380 -1 c-3171 0 -3384 -1 -3440 -18z m365 -582 l0
-202 -122 5 c-128 5 -181 21 -219 64 -82 94 -59 247 46 302 43 23 88 30 198
31 l97 1 0 -201z m6200 1 l0 -200 -2900 0 -2900 0 0 200 0 200 2900 0 2900 0
0 -200z m630 0 c0 -4 -52 -27 -115 -52 l-115 -46 0 98 0 98 115 -46 c63 -25
115 -48 115 -52z"/>
<path d="M9495 1653 c-155 -28 -332 -98 -472 -188 l-72 -46 -44 25 -44 26
-3277 0 c-2946 0 -3284 -2 -3339 -16 -208 -54 -377 -223 -431 -431 -21 -78
-21 -228 0 -306 54 -208 223 -377 431 -431 55 -14 393 -16 3339 -16 l3277 0
44 26 44 25 72 -46 c150 -96 318 -160 496 -190 150 -25 398 -17 536 19 177 45
331 117 469 220 99 73 408 374 447 435 24 38 29 55 29 111 0 56 -5 73 -29 111
-40 62 -349 363 -449 437 -158 117 -360 203 -556 237 -111 19 -361 18 -471 -2z
m358 -398 c136 -11 314 -84 435 -179 31 -24 93 -81 137 -125 l80 -81 -80 -81
c-100 -101 -173 -158 -267 -208 -149 -80 -326 -115 -502 -99 -175 15 -297 64
-517 209 l-139 91 0 88 0 88 139 91 c154 101 273 161 371 186 67 17 207 33
250 29 14 -2 56 -6 93 -9z m-3253 -385 l0 -200 -2122 2 -2123 3 -40 21 c-71
38 -105 95 -105 174 0 99 60 170 160 191 19 4 979 7 2133 8 l2097 1 0 -200z
m800 0 l0 -200 -200 0 -200 0 0 200 0 200 200 0 200 0 0 -200z m1200 0 l0
-200 -400 0 -400 0 0 200 0 200 400 0 400 0 0 -200z"/>
</g>
</svg>
