<?xml version="1.0" standalone="no"?>
<!DOCTYPE svg PUBLIC "-//W3C//DTD SVG 20010904//EN"
 "http://www.w3.org/TR/2001/REC-SVG-20010904/DTD/svg10.dtd">
<svg version="1.0" xmlns="http://www.w3.org/2000/svg"
 width="1280.000000pt" height="1297.000000pt" viewBox="0 0 1280.000000 1297.000000"
 preserveAspectRatio="xMidYMid meet">
<metadata>
Created by potrace 1.16, written by Peter Selinger 2001-2019
</metadata>
<g transform="translate(0.000000,1297.000000) scale(0.100000,-0.100000)"
fill="#000000" stroke="none">
<path d="M6119 12950 c-320 -57 -622 -214 -853 -446 -217 -216 -359 -474 -433
-784 -37 -155 -44 -445 -15 -616 115 -674 639 -1200 1309 -1314 158 -27 389
-27 549 0 668 114 1190 639 1305 1311 18 107 21 150 16 319 -4 161 -10 213
-30 300 -35 146 -79 267 -143 390 -231 444 -658 756 -1151 840 -153 27 -403
26 -554 0z m462 -400 c248 -36 480 -156 669 -349 157 -160 249 -321 307 -538
25 -90 27 -113 27 -293 0 -180 -2 -203 -27 -293 -33 -125 -81 -235 -149 -345
-72 -118 -252 -298 -370 -370 -400 -246 -876 -246 -1276 0 -118 72 -298 252
-370 370 -68 110 -116 220 -149 345 -25 90 -27 113 -27 293 0 180 2 203 27
293 58 214 161 393 316 548 272 272 637 393 1022 339z"/>
<path d="M1402 12549 c-23 -12 -51 -33 -61 -48 -10 -14 -71 -132 -136 -261
-64 -129 -119 -237 -121 -239 -2 -2 -124 -21 -271 -42 -305 -44 -338 -55 -385
-128 -54 -86 -32 -211 50 -282 20 -17 108 -101 194 -186 l157 -154 -45 -255
c-24 -140 -44 -272 -44 -292 0 -51 37 -119 83 -156 34 -27 48 -31 110 -34 l72
-3 248 129 248 129 247 -129 c231 -119 251 -128 304 -128 31 0 69 5 85 11 68
25 123 110 122 189 0 25 -20 155 -44 290 l-44 245 198 196 c109 107 206 210
216 229 38 74 13 198 -49 248 -44 34 -76 41 -350 82 -147 21 -269 40 -271 42
-1 2 -60 117 -130 256 -120 241 -129 255 -173 283 -59 37 -144 40 -210 8z
m161 -764 c74 -150 94 -164 267 -190 l121 -18 -90 -91 c-50 -51 -95 -105 -101
-120 -14 -38 -13 -116 5 -216 8 -47 15 -88 15 -92 0 -4 -50 17 -111 47 -154
76 -188 76 -336 0 -59 -30 -109 -53 -110 -51 -2 2 3 44 11 92 18 104 20 181 6
220 -6 15 -52 70 -102 121 -51 51 -86 93 -80 93 6 0 60 7 119 16 170 25 196
45 273 212 24 50 46 92 49 92 4 0 32 -52 64 -115z"/>
<path d="M11202 12549 c-23 -12 -51 -33 -61 -48 -10 -14 -71 -132 -136 -261
-64 -129 -119 -237 -121 -239 -2 -2 -124 -21 -271 -42 -305 -44 -338 -55 -385
-128 -54 -86 -32 -211 50 -282 20 -17 108 -101 194 -186 l157 -154 -45 -255
c-49 -283 -51 -308 -29 -362 34 -79 101 -122 192 -122 55 0 73 8 306 128 l248
129 247 -129 c231 -119 251 -128 304 -128 31 0 69 5 85 11 68 25 123 110 122
189 0 25 -20 155 -44 290 l-44 245 198 196 c109 107 206 210 216 229 38 74 13
198 -49 248 -44 34 -76 41 -350 82 -147 21 -269 40 -271 42 -1 2 -60 117 -130
256 -120 241 -129 255 -173 283 -59 37 -144 40 -210 8z m161 -764 c74 -150 94
-164 267 -190 l121 -18 -90 -91 c-50 -51 -95 -105 -101 -120 -14 -38 -13 -116
5 -216 8 -47 15 -88 15 -93 0 -4 -49 18 -110 48 -98 49 -116 55 -172 55 -57 0
-73 -6 -167 -55 -57 -30 -106 -53 -108 -51 -2 2 3 44 11 92 18 104 20 181 6
220 -6 15 -52 70 -102 121 -51 51 -86 93 -80 93 6 0 60 7 119 16 170 25 196
45 273 212 24 50 46 92 49 92 4 0 32 -52 64 -115z"/>
<path d="M2804 10256 c-183 -42 -335 -185 -388 -365 -14 -49 -16 -263 -16
-2180 0 -1765 3 -2135 14 -2177 33 -125 136 -259 241 -316 38 -20 1036 -440
2290 -964 6 -2 25 40 44 95 18 54 53 139 77 187 25 48 41 91 36 96 -6 6 -956
405 -2082 874 -85 36 -165 75 -178 88 -13 13 -27 40 -32 62 -14 57 -13 4079 0
4126 12 43 55 78 97 78 15 0 762 -303 1658 -674 l1630 -673 3 -1582 2 -1583
35 6 c46 9 284 9 330 0 l35 -6 2 1582 3 1583 1630 673 c897 371 1643 674 1658
674 42 0 85 -35 97 -78 13 -47 14 -4069 1 -4125 -13 -57 -41 -80 -149 -125
-691 -287 -2139 -895 -2145 -901 -4 -4 15 -52 42 -107 27 -54 62 -138 77 -187
16 -48 33 -86 39 -83 5 2 511 214 1122 469 612 256 1136 478 1165 494 108 58
211 191 244 317 11 42 14 411 14 2176 0 1430 -4 2140 -11 2170 -29 128 -136
264 -255 327 -110 59 -248 77 -364 50 -41 -10 -3021 -1233 -3309 -1358 -24
-10 -51 -19 -59 -19 -9 0 -180 68 -381 151 -1909 789 -2895 1195 -2941 1211
-73 25 -198 32 -276 14z"/>
<path d="M1786 4954 c-442 -87 -787 -435 -871 -877 -20 -104 -19 -311 1 -417
73 -386 343 -698 722 -834 162 -58 411 -74 588 -37 427 88 767 428 855 855 23
114 25 320 4 433 -84 443 -434 794 -875 877 -101 20 -327 20 -424 0z m412
-419 c109 -32 191 -83 288 -179 144 -145 204 -288 204 -486 0 -386 -304 -690
-689 -690 -119 0 -202 19 -306 70 -137 66 -249 178 -315 315 -51 104 -70 187
-70 305 0 118 19 202 70 305 147 302 492 454 818 360z"/>
<path d="M6186 4954 c-442 -87 -787 -435 -871 -877 -20 -104 -19 -311 1 -417
73 -386 343 -698 722 -834 162 -58 411 -74 588 -37 427 88 767 428 855 855 23
114 25 320 4 433 -84 443 -434 794 -875 877 -101 20 -327 20 -424 0z m412
-419 c109 -32 191 -83 288 -179 144 -145 204 -288 204 -486 0 -386 -304 -690
-689 -690 -119 0 -202 19 -306 70 -137 66 -249 178 -315 315 -51 104 -70 187
-70 305 0 118 19 202 70 305 147 302 492 454 818 360z"/>
<path d="M10586 4954 c-150 -29 -318 -103 -439 -192 -226 -166 -380 -411 -432
-685 -20 -104 -19 -311 1 -417 83 -440 434 -791 874 -874 104 -20 301 -21 411
-1 442 77 799 431 883 875 20 106 21 313 1 417 -84 445 -433 794 -878 878 -98
19 -326 18 -421 -1z m394 -415 c136 -36 250 -110 352 -227 176 -202 209 -518
81 -765 -51 -99 -191 -239 -290 -290 -346 -180 -774 -40 -943 308 -51 104 -70
187 -70 305 0 118 19 201 70 305 104 216 315 362 554 384 94 9 155 4 246 -20z"/>
<path d="M1075 2369 c-521 -40 -961 -438 -1060 -960 -12 -66 -15 -174 -15
-592 l0 -510 25 -43 c37 -63 95 -94 175 -94 80 0 138 31 175 94 l25 43 0 434
c0 239 5 475 10 524 39 334 272 597 606 682 63 17 142 18 984 18 842 0 921 -1
984 -18 334 -85 567 -348 606 -682 5 -49 10 -285 10 -524 l0 -434 25 -43 c37
-63 95 -94 175 -94 80 0 138 31 174 93 l25 42 1 510 c1 431 -1 523 -15 593
-94 485 -467 857 -949 947 -70 13 -218 16 -982 18 -494 1 -935 -1 -979 -4z"/>
<path d="M5475 2369 c-522 -40 -958 -435 -1060 -961 -14 -70 -16 -162 -15
-593 l1 -510 25 -42 c36 -62 94 -93 174 -93 80 0 138 31 175 94 l25 43 0 434
c0 239 5 475 10 524 39 334 272 597 606 682 63 17 142 18 984 18 842 0 921 -1
984 -18 334 -85 567 -348 606 -682 5 -49 10 -285 10 -524 l0 -434 25 -43 c37
-63 95 -94 175 -94 80 0 138 31 174 93 l25 42 1 510 c1 431 -1 523 -15 593
-94 485 -467 857 -949 947 -70 13 -218 16 -982 18 -494 1 -935 -1 -979 -4z"/>
<path d="M9875 2369 c-522 -40 -958 -435 -1060 -961 -14 -70 -16 -162 -15
-593 l1 -510 25 -42 c36 -62 94 -93 174 -93 80 0 138 31 175 94 l25 43 0 434
c0 239 5 475 10 524 39 334 272 597 606 682 63 17 142 18 984 18 842 0 921 -1
984 -18 334 -85 567 -348 606 -682 5 -49 10 -285 10 -524 l0 -434 25 -43 c37
-63 95 -94 175 -94 80 0 138 31 175 94 l25 43 0 510 c0 418 -3 526 -15 592
-80 421 -384 769 -788 904 -171 58 -166 57 -1143 60 -494 1 -935 -1 -979 -4z"/>
</g>
</svg>
