<?xml version="1.0" standalone="no"?>
<!DOCTYPE svg PUBLIC "-//W3C//DTD SVG 20010904//EN"
 "http://www.w3.org/TR/2001/REC-SVG-20010904/DTD/svg10.dtd">
<svg version="1.0" xmlns="http://www.w3.org/2000/svg"
 width="1177.000000pt" height="1141.000000pt" viewBox="0 0 1177.000000 1141.000000"
 preserveAspectRatio="xMidYMid meet">
<metadata>
Created by potrace 1.16, written by Peter Selinger 2001-2019
</metadata>
<g transform="translate(0.000000,1141.000000) scale(0.100000,-0.100000)"
fill="#000000" stroke="none">
<path d="M8718 11336 c-103 -37 -182 -109 -226 -205 -22 -45 -28 -76 -32 -160
l-5 -103 -120 -42 c-66 -23 -170 -66 -232 -95 l-112 -54 -63 58 c-35 32 -92
72 -128 89 -58 28 -74 31 -155 30 -157 -1 -174 -12 -416 -251 -224 -221 -250
-258 -270 -372 -22 -122 17 -235 118 -341 l62 -67 -34 -64 c-41 -79 -117 -264
-140 -341 l-16 -58 -52 0 c-194 0 -336 -80 -405 -228 -25 -52 -27 -69 -30
-209 l-4 -153 -2874 0 c-3164 0 -2923 5 -2964 -62 -20 -33 -20 -41 -20 -3319
l0 -3287 -118 -4 c-103 -3 -123 -7 -169 -31 -65 -33 -119 -87 -144 -141 -17
-38 -19 -74 -19 -513 0 -519 3 -549 61 -688 81 -194 222 -340 444 -456 155
-82 289 -121 472 -139 149 -14 8966 -14 9115 0 208 20 394 84 563 194 202 132
320 286 387 508 21 70 22 92 26 541 4 529 3 539 -67 618 -21 25 -65 58 -97 74
-52 26 -71 30 -166 34 l-108 3 0 2352 0 2351 145 145 c164 164 197 208 221
300 34 133 -5 266 -112 379 l-59 62 57 117 c32 64 74 169 95 233 l38 117 105
4 c87 3 115 8 162 30 73 34 152 112 186 186 l27 57 0 325 0 325 -28 53 c-78
148 -212 221 -407 222 l-45 0 -39 115 c-21 64 -65 169 -96 233 l-57 118 67 71
c75 78 106 143 116 242 7 67 -15 166 -51 226 -13 22 -108 126 -212 232 -167
170 -196 196 -258 225 -64 30 -78 33 -165 33 -120 -1 -175 -23 -278 -113 l-74
-64 -126 60 c-70 33 -173 75 -229 94 l-103 33 0 45 c-1 83 -20 181 -46 235
-33 66 -102 135 -174 172 l-55 28 -315 2 c-242 2 -323 0 -352 -11z m597 -321
c24 -23 25 -29 25 -165 0 -155 9 -192 55 -228 15 -12 46 -27 69 -32 188 -47
395 -131 557 -225 65 -39 84 -45 131 -45 66 0 94 18 213 139 58 59 86 81 105
81 35 0 370 -334 370 -370 0 -16 -31 -54 -99 -124 -55 -56 -107 -118 -115
-138 -28 -67 -28 -67 87 -278 60 -111 119 -261 153 -391 16 -59 38 -118 52
-138 38 -52 73 -61 232 -61 136 0 142 -1 165 -25 l25 -24 0 -229 c0 -300 14
-279 -192 -283 -140 -4 -156 -6 -191 -27 -46 -29 -60 -55 -87 -163 -40 -157
-142 -397 -216 -509 -33 -50 -46 -97 -38 -145 5 -33 24 -58 115 -152 85 -87
109 -118 109 -140 0 -21 -33 -60 -169 -197 -148 -148 -173 -169 -201 -169 -26
0 -47 15 -133 101 -142 141 -182 152 -302 81 -172 -101 -328 -168 -500 -214
-182 -49 -195 -67 -195 -269 0 -82 -5 -145 -12 -161 -18 -40 -61 -47 -296 -43
l-214 3 -24 28 c-23 27 -24 34 -24 170 0 207 -13 225 -193 272 -156 40 -328
113 -487 205 -82 48 -101 54 -157 45 -41 -6 -57 -18 -158 -116 -78 -74 -121
-109 -136 -109 -33 0 -369 336 -369 369 0 16 32 56 100 126 142 146 155 186
95 296 -117 213 -176 350 -220 514 -51 186 -53 188 -268 195 l-159 5 -24 29
-25 28 3 235 c4 294 -11 273 189 273 95 0 150 4 172 14 51 21 83 66 102 148
41 169 125 372 213 518 50 82 56 101 47 157 -6 41 -18 57 -116 158 -73 77
-109 121 -109 136 0 33 335 369 368 369 18 0 56 -30 133 -104 153 -148 187
-155 336 -64 133 81 338 166 489 202 82 20 125 44 151 83 15 22 19 55 23 186
7 213 -17 197 287 197 l234 0 24 -25z m-2846 -2569 c16 -73 77 -164 140 -210
70 -52 152 -76 257 -76 46 0 84 -3 84 -7 0 -5 3 -18 6 -30 l6 -23 -2828 0
c-2673 0 -2831 -1 -2864 -18 -19 -9 -45 -32 -57 -51 l-23 -34 0 -2686 c0
-2645 0 -2686 20 -2718 10 -18 31 -40 47 -50 26 -17 205 -18 4411 -21 2866 -1
4397 1 4421 8 20 5 50 24 66 40 l30 31 3 2085 2 2086 31 -27 c62 -52 129 -78
212 -83 l77 -5 0 -2278 0 -2279 -1701 0 c-1529 0 -1704 -2 -1728 -16 -14 -8
-118 -143 -231 -300 l-205 -284 -964 2 -964 3 -198 275 c-109 151 -213 285
-230 298 l-32 22 -1693 0 -1694 0 0 3200 0 3200 2793 0 2794 0 12 -54z m637
-689 l31 -63 -59 -64 c-102 -113 -140 -224 -118 -349 20 -113 52 -159 263
-369 209 -207 250 -236 365 -252 126 -17 238 23 339 122 l61 61 49 -27 c71
-41 236 -110 334 -142 l87 -27 4 -106 c3 -93 7 -114 32 -166 38 -76 105 -143
181 -181 l60 -29 320 0 320 0 55 26 c151 72 229 211 230 411 l0 46 83 28 c45
15 103 35 130 45 l47 19 0 -1970 0 -1970 -4230 0 -4230 0 0 2510 0 2510 2808
0 2807 -1 31 -62z m-2757 -6212 c152 -212 212 -288 236 -300 29 -13 158 -15
1097 -15 992 0 1065 1 1098 18 26 13 84 85 238 299 l204 283 1847 0 c1490 0
1851 -2 1865 -13 16 -12 17 -41 14 -437 l-3 -425 -28 -78 c-33 -96 -64 -146
-131 -215 -94 -98 -233 -179 -392 -229 l-89 -28 -4615 0 -4615 0 -84 23 c-162
44 -336 144 -425 243 -55 62 -112 169 -131 250 -20 86 -23 894 -2 902 6 3 845
6 1862 6 l1850 0 204 -284z"/>
<path d="M8830 10126 c-537 -97 -956 -469 -1105 -981 -80 -277 -69 -608 29
-868 174 -459 559 -786 1043 -884 124 -25 405 -24 523 1 562 120 973 525 1095
1076 26 118 31 385 10 512 -93 557 -510 1000 -1065 1130 -111 26 -418 34 -530
14z m439 -321 c652 -139 1026 -829 782 -1440 -138 -344 -441 -592 -808 -661
-127 -24 -334 -15 -461 20 -401 111 -700 435 -778 844 -18 97 -18 279 1 379
87 460 456 810 920 872 86 12 255 5 344 -14z"/>
<path d="M6225 6890 c-17 -5 -43 -22 -58 -38 -19 -20 -212 -459 -622 -1419
-651 -1521 -623 -1448 -572 -1523 28 -42 81 -70 131 -70 53 0 119 40 140 85
10 20 280 650 602 1402 625 1462 605 1410 568 1489 -29 60 -119 95 -189 74z"/>
<path d="M6545 6346 c-98 -42 -125 -175 -52 -251 18 -18 237 -183 487 -365
250 -183 463 -340 472 -349 16 -15 -15 -40 -473 -376 -522 -383 -529 -389
-529 -471 0 -52 27 -102 71 -131 33 -22 47 -25 96 -21 l58 4 570 418 c314 230
587 435 607 456 61 63 63 154 5 215 -39 40 -1161 863 -1195 876 -33 13 -82 11
-117 -5z"/>
<path d="M4677 6324 c-58 -31 -1159 -847 -1173 -870 -39 -59 -26 -149 29 -201
60 -56 1129 -835 1167 -850 107 -42 223 56 205 173 -3 24 -17 56 -30 71 -12
16 -234 183 -493 373 -288 211 -467 349 -462 355 5 6 217 163 473 350 255 187
472 351 482 365 13 16 21 46 23 85 3 50 0 66 -20 95 -43 64 -137 89 -201 54z"/>
</g>
</svg>
