<?xml version="1.0" standalone="no"?>
<!DOCTYPE svg PUBLIC "-//W3C//DTD SVG 20010904//EN"
 "http://www.w3.org/TR/2001/REC-SVG-20010904/DTD/svg10.dtd">
<svg version="1.0" xmlns="http://www.w3.org/2000/svg"
 width="823.000000pt" height="1168.000000pt" viewBox="0 0 823.000000 1168.000000"
 preserveAspectRatio="xMidYMid meet">
<metadata>
Created by potrace 1.16, written by Peter Selinger 2001-2019
</metadata>
<g transform="translate(0.000000,1168.000000) scale(0.100000,-0.100000)"
fill="#000000" stroke="none">
<path d="M3322 11640 c-71 -16 -134 -106 -176 -254 -53 -181 -43 -326 29 -432
l35 -50 0 -497 0 -497 -25 -16 -25 -16 0 -214 c0 -150 -3 -215 -12 -220 -6 -4
-239 -13 -517 -20 -949 -24 -1306 -36 -1346 -43 -22 -4 -53 -4 -70 1 -17 5
-71 4 -125 -2 -160 -18 -493 -71 -512 -81 -38 -20 -34 -93 6 -109 12 -4 121
-24 242 -44 120 -20 228 -39 240 -41 17 -4 22 -14 27 -59 3 -29 12 -67 21 -84
l16 -31 -396 -758 c-602 -1153 -530 -1023 -569 -1023 -73 0 -112 -35 -100 -89
4 -21 16 -32 44 -43 33 -13 44 -26 70 -81 40 -83 125 -164 205 -195 58 -22 59
-22 794 -22 801 1 907 5 989 46 65 31 127 100 163 179 18 41 36 64 54 73 32
14 51 52 42 86 -6 25 -41 41 -104 48 -20 3 -87 125 -484 887 l-461 884 17 46
c9 25 16 63 16 85 l0 38 143 -6 c228 -11 1382 -46 1500 -46 l107 0 0 -95 c0
-94 -1 -98 -42 -128 -19 -14 -20 -67 -59 -2327 -19 -1105 -22 -1215 -37 -1226
-13 -9 -19 -40 -27 -127 l-10 -115 -277 -291 -278 -290 0 -126 0 -126 -867 3
-868 3 -38 -23 c-60 -38 -88 -82 -94 -150 -3 -34 0 -74 6 -95 23 -68 122 -137
199 -137 l22 0 0 -375 0 -375 -30 0 c-65 0 -146 -54 -180 -120 -32 -62 -34
-108 -10 -175 11 -33 23 -67 26 -76 4 -11 -7 -21 -38 -35 -68 -30 -178 -105
-245 -168 -140 -129 -249 -323 -288 -510 -21 -102 -22 -355 -2 -451 45 -214
178 -432 345 -564 89 -71 171 -115 293 -155 l107 -36 834 0 c459 0 1078 -3
1375 -7 l541 -6 28 -84 c71 -221 235 -405 432 -488 l84 -35 1984 0 1985 0 43
44 c35 35 46 55 56 100 13 65 2 140 -30 191 -22 36 -86 75 -124 75 l-26 0 0
399 0 399 28 7 c50 12 97 51 127 106 23 44 29 66 29 119 0 85 -16 130 -68 183
-34 36 -51 45 -90 50 -27 4 -536 7 -1132 7 l-1084 0 0 179 0 179 33 7 c95 21
179 102 198 193 23 110 -14 232 -88 288 -18 14 -33 28 -33 33 0 4 29 29 65 55
116 85 211 215 271 371 24 62 28 87 32 225 4 153 4 156 -28 251 -72 219 -215
381 -425 484 -173 84 -185 86 -610 95 -203 5 -486 9 -627 9 l-258 1 0 109 c0
60 -4 121 -10 135 -11 29 -85 113 -358 406 l-192 205 0 103 c0 96 -2 104 -24
126 l-25 22 -15 865 c-9 475 -23 1265 -32 1754 l-16 890 -29 28 c-28 27 -29
32 -29 120 l0 93 408 12 c463 14 1199 40 1285 45 l57 3 0 -41 c0 -22 8 -57 18
-77 l19 -36 -441 -896 -440 -896 -59 0 c-48 0 -62 -4 -82 -25 -14 -13 -25 -33
-25 -45 0 -28 35 -60 65 -60 14 0 27 -6 29 -12 31 -109 91 -187 188 -243 l59
-35 782 0 c430 0 822 5 870 10 139 14 222 78 278 212 19 47 31 64 50 68 31 8
54 49 46 82 -9 33 -49 48 -131 48 l-61 1 -443 896 c-444 897 -444 897 -427
925 9 15 19 50 22 78 3 28 9 53 14 55 4 3 97 19 206 35 261 39 292 47 305 75
13 30 3 72 -20 84 -10 5 -128 28 -263 51 -210 35 -294 44 -394 39 -11 0 -141
4 -290 10 -148 5 -502 15 -785 21 -283 5 -588 13 -677 16 l-163 6 0 208 0 208
-27 33 -28 33 -3 488 -3 489 40 60 c50 75 66 145 57 257 -14 164 -71 325 -138
388 -36 34 -82 45 -136 34z m74 -204 c36 -78 57 -185 53 -275 -4 -71 -7 -83
-35 -118 -51 -63 -92 -54 -137 32 -30 57 -27 155 8 265 34 105 62 163 76 154
6 -3 22 -30 35 -58z m24 -1795 l0 -138 -46 -7 c-26 -3 -53 -6 -60 -6 -11 0
-14 29 -14 145 l0 145 60 0 60 0 0 -139z m34 -319 c55 -49 53 -138 -5 -186
-55 -46 -103 -46 -158 -1 -77 65 -57 167 43 219 26 13 33 13 65 0 19 -8 44
-22 55 -32z m-354 -87 c0 -64 0 -65 -27 -65 -89 0 -1591 51 -1652 56 -47 4
-70 9 -63 16 13 13 281 25 862 38 267 6 519 12 560 13 41 2 130 4 198 5 l122
2 0 -65z m1570 45 c556 -11 672 -17 696 -35 20 -14 29 -14 -896 -45 -316 -11
-632 -23 -702 -26 l-128 -7 0 68 0 67 278 -6 c152 -4 491 -11 752 -16z m1222
-1283 l418 -842 -832 -3 c-457 -1 -833 0 -836 3 -8 8 819 1696 828 1688 2 -2
192 -383 422 -846z m-4392 369 c304 -580 607 -1170 615 -1196 6 -20 2 -20
-870 -20 -482 0 -875 4 -873 8 21 54 874 1672 881 1669 4 -1 116 -209 247
-461z m1980 232 c0 -57 5 -355 10 -663 5 -308 16 -987 25 -1510 8 -522 16
-994 18 -1048 l2 -97 -178 0 -178 0 6 168 c3 92 12 559 20 1037 9 479 20 1118
25 1420 5 303 10 605 10 673 l0 122 120 0 120 0 0 -102z m2889 -1587 l74 -6
-34 -44 c-52 -67 -78 -82 -160 -92 -41 -4 -406 -8 -812 -9 l-737 0 -42 26
c-47 30 -84 67 -104 107 l-15 27 878 -1 c483 -1 911 -4 952 -8z m-4186 -33
c-11 -18 -41 -49 -67 -69 -45 -34 -53 -36 -144 -42 -131 -9 -1412 -7 -1484 2
-36 4 -70 16 -93 33 -35 24 -85 84 -85 100 0 4 426 8 946 8 l946 0 -19 -32z
m1621 -2236 l238 -257 -43 -7 c-59 -9 -1222 -8 -1279 1 l-45 7 125 130 c68 71
181 186 250 257 l125 127 195 -1 195 -1 239 -256z m336 -482 l0 -80 -222 0
c-123 0 -476 3 -785 7 l-563 6 0 74 0 73 785 0 785 0 0 -80z m-640 -211 c1129
-6 1931 -14 1970 -20 186 -28 370 -127 476 -257 59 -72 130 -220 144 -302 14
-76 6 -205 -17 -282 -54 -183 -183 -324 -388 -424 l-89 -44 -2419 2 -2419 3
-29 33 c-35 39 -37 72 -5 109 24 28 26 28 168 33 78 3 701 2 1383 -2 682 -3
1657 -7 2167 -7 882 -1 929 0 987 18 372 116 459 655 144 893 -116 87 -128 89
-533 98 -195 5 -1239 14 -2320 20 -1081 6 -1970 13 -1977 15 -7 2 -19 18 -28
35 -12 23 -13 35 -5 51 26 47 47 49 480 44 223 -3 1262 -10 2310 -16z m62
-267 c487 -4 889 -10 893 -13 3 -4 3 -18 -1 -33 l-6 -26 -1297 7 c-713 3
-1313 3 -1333 -1 -22 -4 -42 -15 -49 -27 -13 -26 -3 -75 19 -85 9 -4 544 -11
1187 -15 644 -5 1239 -12 1323 -15 l152 -6 0 -61 0 -60 -657 6 c-362 4 -1154
10 -1760 14 l-1103 6 0 116 c0 119 11 189 29 201 11 6 1087 3 2603 -8z m1846
-46 c76 -39 138 -100 174 -174 30 -61 33 -73 33 -167 0 -87 -3 -107 -26 -155
-44 -95 -128 -173 -219 -205 l-40 -14 0 347 c0 191 3 357 6 370 8 28 14 28 72
-2z m-538 -291 l0 -216 -56 43 c-72 54 -103 55 -172 4 l-52 -38 0 159 c0 87 3
182 6 211 l7 52 133 0 134 0 0 -215z m310 65 l0 -60 -80 0 -80 0 0 60 0 60 80
0 80 0 0 -60z m-1927 -186 l1197 -6 0 -60 0 -59 -1683 7 c-1587 7 -1683 6
-1700 -10 -20 -20 -23 -79 -4 -94 15 -13 497 -20 2137 -32 1151 -9 1246 -11
1257 -27 7 -9 11 -18 9 -20 -5 -6 -3008 15 -3272 23 -127 3 -238 10 -245 15
-11 6 -15 42 -17 146 l-4 138 564 -7 c309 -4 1102 -11 1761 -14z m1927 -74 l0
-60 -80 0 -80 0 0 60 0 60 80 0 80 0 0 -60z m622 -701 c11 -6 29 -31 39 -55
17 -36 18 -50 9 -83 -5 -21 -21 -49 -35 -63 -24 -25 -26 -25 -266 -31 -133 -4
-1211 -7 -2395 -7 l-2153 0 -83 -30 c-248 -90 -392 -283 -405 -540 -7 -141 9
-231 60 -333 83 -169 262 -300 434 -318 43 -4 425 -8 849 -8 424 -1 967 -4
1207 -8 l437 -6 0 -95 0 -94 -1342 5 c-1506 5 -1385 -1 -1553 82 -166 81 -286
205 -370 379 -69 143 -79 194 -80 391 0 167 1 172 34 267 83 241 263 436 480
521 42 16 99 33 126 37 79 13 4983 2 5007 -11z m-195 -392 c4 -5 10 -85 11
-178 l4 -169 -729 0 c-409 0 -761 -5 -803 -10 -60 -8 -95 -21 -175 -62 l-100
-52 -1042 -4 -1043 -4 0 80 0 79 1868 5 c1027 3 1875 9 1885 13 22 9 32 50 19
79 -7 16 -22 25 -49 29 -21 4 -867 7 -1880 7 l-1843 0 0 38 c0 21 -7 48 -16
60 -15 22 -20 22 -217 22 -111 0 -207 -4 -214 -8 -15 -10 -33 -57 -33 -88 0
-22 -3 -24 -55 -24 l-55 0 0 100 0 100 2229 -2 c1226 -2 2233 -7 2238 -11z
m-4607 -463 l0 -465 -22 7 c-105 32 -230 142 -278 246 -61 131 -61 295 0 423
42 87 133 180 220 222 36 18 68 32 73 33 4 0 7 -210 7 -466z m580 11 c0 -140
-3 -255 -6 -255 -3 0 -17 9 -31 20 -34 26 -92 26 -127 -1 l-26 -20 0 83 c0 46
3 161 7 256 l6 172 89 0 88 0 0 -255z m-330 55 l0 -80 -55 0 -55 0 0 80 0 80
55 0 55 0 0 -80z m6716 -113 c30 -35 32 -89 4 -134 l-20 -33 -422 -1 c-233 -1
-1062 -5 -1843 -8 l-1420 -6 -80 -40 c-230 -115 -344 -353 -291 -607 23 -104
61 -173 141 -254 55 -56 90 -82 151 -111 l79 -38 815 -6 c448 -4 1282 -7 1852
-8 1015 -1 1038 -1 1048 -20 5 -11 10 -36 10 -55 0 -72 168 -66 -1971 -64
l-1924 3 -80 40 c-93 46 -210 156 -264 248 -79 135 -118 305 -107 469 9 122
26 191 76 294 52 108 121 197 194 252 97 71 154 93 265 102 53 4 921 7 1929 6
l1834 -1 24 -28z m-6716 -187 l0 -90 -55 0 -55 0 0 90 0 90 55 0 55 0 0 -90z
m2405 48 c-14 -24 -38 -64 -53 -90 l-27 -48 -922 0 -923 0 0 90 0 90 976 0
975 0 -26 -42z m4149 -214 c3 -26 6 -118 6 -205 l0 -159 -1440 0 -1440 0 0 73
0 74 1422 5 c1369 6 1422 7 1436 24 14 20 9 71 -9 89 -7 7 -471 11 -1429 13
l-1420 2 0 45 c0 70 -14 75 -200 75 -108 0 -160 -4 -168 -12 -7 -7 -12 -34
-12 -60 l0 -48 -50 0 -50 0 0 65 0 65 1674 0 1673 0 7 -46z m-3504 -360 c0
-198 -3 -363 -6 -367 -13 -12 -100 43 -151 95 -28 29 -63 76 -77 104 -24 47
-26 63 -26 170 0 104 3 125 24 170 31 67 87 128 160 176 45 29 62 35 68 26 4
-7 8 -175 8 -374z m-795 297 c-11 -5 -346 -10 -745 -11 -894 -4 -1050 -3
-1030 10 9 6 347 10 905 9 490 0 881 -4 870 -8z m1275 -124 l0 -92 -45 3 -45
4 0 89 0 89 45 0 45 0 0 -93z m-215 -330 c36 -25 53 -26 89 -6 44 23 113 25
144 3 29 -20 78 -20 117 0 27 14 176 16 1464 16 l1434 0 -8 -122 c-4 -68 -8
-124 -8 -124 -1 -1 -755 -4 -1674 -7 l-1673 -6 0 130 0 129 48 0 c26 0 56 -6
67 -13z"/>
</g>
</svg>
